<svg width="31" height="31" viewBox="0 0 31 31" fill="none" xmlns="http://www.w3.org/2000/svg">
<path d="M26.3112 27.4478C26.3112 27.7048 26.2092 27.9512 26.0275 28.1328C25.8458 28.3145 25.5994 28.4166 25.3425 28.4166H5.65747C5.40054 28.4166 5.15414 28.3145 4.97246 28.1328C4.79079 27.9512 4.68872 27.7048 4.68872 27.4478C4.68872 22.152 10.5012 18.0445 15.5 18.0445C20.4987 18.0445 26.3112 22.152 26.3112 27.4478ZM22.0875 9.18367C22.0849 10.486 21.6964 11.7584 20.971 12.84C20.2456 13.9216 19.2159 14.7639 18.012 15.2605C16.808 15.7571 15.4839 15.8857 14.2069 15.6301C12.9299 15.3745 11.7573 14.746 10.8374 13.8243C9.91737 12.9025 9.29125 11.7287 9.03812 10.4512C8.78498 9.17367 8.91619 7.84981 9.41516 6.64685C9.91413 5.44389 10.7585 4.41583 11.8415 3.69256C12.9245 2.96928 14.1976 2.58325 15.5 2.58325C17.2483 2.58667 18.9238 3.28358 20.1588 4.52103C21.3938 5.75848 22.0875 7.43537 22.0875 9.18367Z" fill="#878787"/>
</svg>
